<svg xmlns="http://www.w3.org/2000/svg" viewBox="0 0 100 40" fill="none">
  <rect width="100" height="40" rx="4" fill="#FFB3C7"/>
  <path fill="#0A0B09" d="M18.5 10h-4.8v20h4.8V10zM35.5 10h-4.6c0 4.2-1.7 8-4.5 10.7l-1.4 1.3 6.5 8h5.8l-5.8-7.3c2.6-3.3 4-7.5 4-12.7zM43 10h-4.8v20H43V10zM52.7 17c-1.8 0-3.2.6-4.2 1.8V17.3h-4.4V30h4.5v-7c0-2.2 1.2-3.3 3-3.3 1.7 0 2.8 1 2.8 3v7.3h4.4v-8.3c0-3.5-2.3-5.7-6.1-5.7zM71.4 17c-1.5 0-2.8.5-3.7 1.4v-1.1h-4.3V30h4.4v-6.8c0-2 1.2-3.2 2.9-3.2s2.6 1 2.6 2.8V30h4.5v-8c0-3.3-2.2-5-6.4-5zM85.5 17c-4 0-6.9 2.8-6.9 6.6s2.9 6.6 6.9 6.6c2.3 0 4.2-.9 5.4-2.4l-2.8-2.1c-.6.8-1.5 1.2-2.5 1.2-1.4 0-2.5-.7-2.8-2h8.7v-.9c0-4.3-2.7-7-6-7zm-2.6 5.2c.3-1.2 1.3-2 2.6-2 1.2 0 2.2.7 2.5 2h-5.1z"/>
  <circle cx="92" cy="26" r="2.5" fill="#0A0B09"/>
</svg>
