<svg xmlns="http://www.w3.org/2000/svg" viewBox="0 0 240 64" width="120" height="32">
    <g transform="translate(8, 8)">
          <path d="M36.68 8.14h-13.8c-.94 0-1.74.68-1.88 1.6L16.5 39.33c-.1.68.42 1.3 1.12 1.3h6.6c.94 0 1.74-.68 1.88-1.6l1.4-8.87c.14-.92.94-1.6 1.88-1.6h4.34c9.04 0 14.26-4.38 15.62-13.06.62-3.8.02-6.78-1.76-8.88C45.56 4.48 41.68 3.14 36.68 8.14z" fill="#003087" transform="translate(0,-5)"/>
          <path d="M36.68 8.14h-13.8c-.94 0-1.74.68-1.88 1.6L16.5 39.33c-.1.68.42 1.3 1.12 1.3h7.08c.66 0 1.22-.48 1.32-1.12l1.52-9.35c.14-.92.94-1.6 1.88-1.6h4.34c9.04 0 14.26-4.38 15.62-13.06.62-3.8.02-6.78-1.76-8.88C45.56 4.48 41.68 3.14 36.68 8.14z" fill="#0070E0" transform="translate(4,-2)"/>
          <text x="65" y="35" fill="#003087" font-family="Arial, Helvetica, sans-serif" font-size="28" font-weight="bold" font-style="italic">Pay</text>
          <text x="115" y="35" fill="#0070E0" font-family="Arial, Helvetica, sans-serif" font-size="28" font-weight="bold" font-style="italic">Pal</text>
    </g>
</svg>
