<svg xmlns="http://www.w3.org/2000/svg" viewBox="0 0 200 64" width="120" height="38">
    <rect width="200" height="64" rx="6" fill="#000000"/>
    <!-- Hexagon with pin icon -->
    <g transform="translate(16, 6)">
          <!-- White hexagon -->
          <polygon points="26,0 48,12.7 48,38.2 26,50.9 4,38.2 4,12.7" fill="#ffffff"/>
          <!-- Colored location pin -->
          <g transform="translate(14, 8)">
                  <!-- Blue stroke pin outline -->
                  <path d="M12,2C7.04,2,3,6.04,3,11c0,6.12,9,17,9,17s9-10.88,9-17C21,6.04,16.96,2,12,2z" fill="none" stroke="#009EE0" stroke-width="3"/>
                  <!-- Red/yellow accents -->
                  <path d="M12,6c-2.76,0-5,2.24-5,5c0,4.24,5,10,5,10s5-5.76,5-10C17,8.24,14.76,6,12,6z" fill="#E4002B" opacity="0.8"/>
                  <circle cx="9" cy="8" r="3" fill="#FFCC00"/>
                  <circle cx="15" cy="8" r="3" fill="#009EE0"/>
                  <circle cx="12" cy="14" r="3" fill="#E4002B"/>
          </g>
    </g>
    <!-- TWINT text -->
    <text x="130" y="42" text-anchor="middle" fill="#ffffff" font-family="Arial, Helvetica, sans-serif" font-size="28" font-weight="bold" letter-spacing="2">TWINT</text>
</svg>
