<svg xmlns="http://www.w3.org/2000/svg" viewBox="0 0 100 40" fill="none">
  <rect width="100" height="40" rx="4" fill="#000000"/>
  <!-- Simplified TWINT pin icon -->
  <g transform="translate(12, 3) scale(0.55)">
    <!-- Blue pin shape -->
    <path d="M20 4C13.4 4 8 9.4 8 16c0 8 12 20 12 20s12-12 12-20c0-6.6-5.4-12-12-12z" fill="#00A3E0"/>
    <!-- Orange/red accent overlay -->
    <path d="M20 4c-3 0-5.7 1.1-7.8 2.9C15.5 9.5 20 16 20 24c0-8 4.5-14.5 7.8-17.1C25.7 5.1 23 4 20 4z" fill="#FF6600" opacity="0.85"/>
    <!-- Inner white circle -->
    <circle cx="20" cy="15" r="4.5" fill="white"/>
  </g>
  <!-- TWINT text -->
  <text x="58" y="26" font-family="Arial, Helvetica, sans-serif" font-size="15" font-weight="bold" fill="#FFFFFF" text-anchor="middle" letter-spacing="1">TWINT</text>
</svg>