<svg xmlns="http://www.w3.org/2000/svg" viewBox="0 0 384 244" width="100" height="63">
    <path d="M148.004 82.437l-26.48 79.321h-27.2l-26-71.656c-.552-2.168-1.48-3.656-3.256-4.684C60.792 83.018 53.676 80.438 48 78.682l.6-2.844h34.008c4.332 0 8.232 2.888 9.22 7.884l8.424 44.768L122.436 75.838h26.568zm69.072 53.424c.08-20.936-28.952-22.088-28.76-31.43.064-2.844 2.776-5.876 8.712-6.648 2.944-.384 11.064-.676 20.268 3.536l3.608-16.836c-4.944-1.8-11.312-3.532-19.224-3.532-20.312 0-34.612 10.804-34.72 26.28-.12 11.444 10.208 17.836 18 21.648 8.012 3.896 10.7 6.4 10.668 9.884-.056 5.336-6.392 7.696-12.296 7.784-10.32.168-16.312-2.792-21.088-5.02l-3.72 17.384c4.792 2.208 13.636 4.128 22.816 4.224 21.588 0 35.724-10.664 35.784-27.18l-.048 6.906zm53.66 25.897h19.068l-16.636-79.32h-17.596c-3.96 0-7.296 2.3-8.776 5.836L218.2 161.758h21.588l4.292-11.876h26.368l2.492 11.876zm-22.924-28.2l10.824-29.862 6.236 29.862h-17.06zM174.9 82.437l-17.016 79.32h-20.564l17.028-79.32h20.552z" fill="#1434CB"/>
</svg>
