<svg xmlns="http://www.w3.org/2000/svg" viewBox="0 0 600 492">
  <rect width="300" height="492" fill="#FFD700"/>
  <rect x="300" width="300" height="492" fill="#CE1126"/>
  <!-- Simplified eagle (left) -->
  <path d="M150 80 L200 160 L250 120 L280 200 L260 280 L200 320 L140 340 L100 280 L80 200 L120 160 Z" fill="#CE1126"/>
  <path d="M140 180 L160 220 L180 200 L200 240 L180 280 L160 260 L140 280 L120 240 Z" fill="#FFD700"/>
  <!-- Simplified key (right) -->
  <rect x="420" y="100" width="30" height="300" fill="#FFD700" rx="5"/>
  <circle cx="435" cy="100" r="50" fill="none" stroke="#FFD700" stroke-width="25"/>
  <rect x="445" y="250" width="40" height="15" fill="#FFD700"/>
  <rect x="445" y="300" width="40" height="15" fill="#FFD700"/>
  <rect x="445" y="350" width="30" height="15" fill="#FFD700"/>
</svg>
