<svg xmlns="http://www.w3.org/2000/svg" width="800" height="800">
<path d="M406.85 0H0v800h406.85z" fill="#fcdb00"/>
<path d="M400 0v800h400V0H400z" fill="#f00000"/>
<path d="m348.82 608.24-38.727 38.328"/>
<path d="M598.991 40.73v.014c-11.986 0-23.973 7.83-24.85 23.494v382.7h6.379c0-30.796 37.252-30.518 37.252.072h6.066V217.4l12.986.107v58.33h41.143V260.28h17.418v15.557h41.453v-44.096H718.79v-14.934h18.05v-70.773h-18.05V131.1h18.05V86.924h-41.454v15.553h-17.418V86.924h-41.143v58.482l-12.986.051V64.215c-.876-15.663-12.863-23.492-24.848-23.492zm78.977 91.008h17.42v42.229h16.098v14.934h-16.098v42.229h-17.42v-42.229h-16.799v-14.932h16.799zm-54.127 315.28v.004l.156-.004zm-66.027.008a15.554 15.554 0 0 0-15.555 15.553v3.734a15.554 15.554 0 0 0 15.555 15.553h8.559a86.014 86.014 0 0 1-50.006 50.316v-8.32a15.554 15.554 0 0 0-15.557-15.555h-3.733a15.554 15.554 0 0 0-15.557 15.555v12.441a28.775 28.775 0 0 0 0 57.475v12.441a15.554 15.554 0 0 0 15.555 15.553h3.735a15.554 15.554 0 0 0 15.557-15.553v-6.295a86.091 86.091 0 0 1 50.236 50.398h-6.377a15.554 15.554 0 0 0-15.557 15.553v3.735a15.554 15.554 0 0 0 15.557 15.553h12.52a28.775 28.775 0 0 0 57.473 0h12.52a15.554 15.554 0 0 0 15.557-15.553v-3.891a15.554 15.554 0 0 0-15.557-15.553h-8.555a86.17 86.17 0 0 1 50.242-50.398v6.297a15.554 15.554 0 0 0 15.553 15.555h3.732a15.554 15.554 0 0 0 15.553-15.555v-12.443a28.775 28.775 0 0 0 18.664-49.068 28.542 28.542 0 0 0-18.898-8.324v-12.441a15.554 15.554 0 0 0-15.553-15.553h-3.734a15.554 15.554 0 0 0-15.553 15.553v8.556a85.548 85.548 0 0 1-50.475-50.473h6.377a15.554 15.554 0 0 0 15.553-15.553v-3.734a15.554 15.554 0 0 0-15.553-15.551h-82.277v-.006zm42.303 39.586h.004a119.38 119.38 0 0 0 79.559 79.557 119.61 119.61 0 0 0-79.404 79.559 119.53 119.53 0 0 0-79.637-79.559 119.38 119.38 0 0 0 79.479-79.557z"/>
<path d="M599.361 45.614a18.665 18.665 0 0 0-13.159 5.414 19.754 19.754 0 0 0-5.678 13.145v382.86h37.485V64.173c-.059-10.261-8.388-18.55-18.648-18.56zm102.17 47.631v15.477h-29.788V93.247h-28.697v58.404h-19.365v59.573h19.365v58.404h28.697v-15.477h29.788v15.477h29.084v-31.651h-17.964V210.6h17.964v-58.406h-17.964v-27.293h17.964V93.245h-29.084zm-29.788 32.274h29.788v42.228h16.173v27.377h-16.173v42.231h-29.788v-42.231h-16.719V167.75h16.719zm-113.93 327.73a9.177 9.177 0 0 0-6.609 2.72 9.334 9.334 0 0 0-2.72 6.612v3.733a9.334 9.334 0 0 0 9.332 9.333h82.28a9.334 9.334 0 0 0 9.331-9.331h.077v-3.734a9.334 9.334 0 0 0-9.331-9.333zm14.935 28.541a91.846 91.846 0 0 1-56.461 56.928v22.011a113.31 113.31 0 0 0 78.393-78.936h-21.93zm32.43 0a113 113 0 0 0 79.092 79.092v-22.008a91.922 91.922 0 0 1-57.084-57.084zm-108.1 32.665a9.412 9.412 0 0 0-9.334 9.332v82.28a9.333 9.333 0 0 0 9.334 9.331v.077h3.731a9.334 9.334 0 0 0 9.332-9.33v-82.36a9.334 9.334 0 0 0-9.332-9.33zm202.66.077a9.177 9.177 0 0 0-6.609 2.722 9.254 9.254 0 0 0-2.723 6.533v82.28a9.334 9.334 0 0 0 9.332 9.331v.156h3.734a9.333 9.333 0 0 0 9.334-9.332v-82.359a9.334 9.334 0 0 0-9.332-9.331zm-218.23 27.922c-11.927.693-21.245 10.566-21.245 22.515 0 11.95 9.317 21.821 21.245 22.515zm237.51 0v45.03c11.927-.695 21.245-10.569 21.245-22.516s-9.318-21.823-21.245-22.515zm-34.84 28.697a112.85 112.85 0 0 0-78.782 79.012h22.088a92.312 92.312 0 0 1 56.773-56.927h-.077v-22.085zm-167.91.078v22.008a92.235 92.235 0 0 1 56.461 57.006h22.32a112.84 112.84 0 0 0-78.779-79.012zm43.94 85.158a9.333 9.333 0 0 0-9.334 9.331v3.734a9.333 9.333 0 0 0 9.334 9.334h82.514a9.333 9.333 0 0 0 9.334-9.33v-3.734a9.333 9.333 0 0 0-9.334-9.334zm18.586 28.62c.778 11.89 10.64 21.139 22.554 21.154 11.883-.057 21.699-9.296 22.475-21.153z" fill="#fcdb00"/>
<path d="M257.063 25.149a8.71 8.71 0 0 0-8.71 8.713 8.555 8.555 0 0 0 2.566 6.143 8.633 8.633 0 0 0 6.144 2.566 8.711 8.711 0 0 0 0-17.416zm-18.197 17.188c-21.19-.016-31.833 25.587-16.875 40.597a23.333 23.333 0 0 0 8.552 5.441v9.258h3.112v-8.328c1.708.404 3.456.615 5.21.627h36.474c1.727.01 3.449-.173 5.135-.543v8.317H227.2l-3.779 6.386h-42.589a7.776 7.776 0 0 0-6.298 3.344 11.742 11.742 0 0 0-.932 10.732 143.375 143.375 0 0 0 10.887 21.23l.467.78h6.377v-5.99a4.356 4.356 0 0 1 1.09-3.032 4.121 4.121 0 0 1 2.955-1.011h17.81a18.432 18.432 0 0 1 15.087 13.53l2.723.624a8.4 8.4 0 0 1 7-3.656 8.709 8.709 0 0 1 6.143 2.566 8.555 8.555 0 0 1 2.566 6.145 9.566 9.566 0 0 1-2.877 6.765 26.208 26.208 0 0 1-16.1 8.245h-.777l-.778.933-1.01 1.477-.857 1.244 1.166.934a20.998 20.998 0 0 0 19.754 1.789l-.076-.078-.222-1.106.232 1.1a38.881 38.881 0 0 1 6.69-1.09c22.337-1.553 41.67 15.372 43.082 37.72a41.685 41.685 0 0 1-2.484 16.332 17.265 17.265 0 0 0 10.96 3.81 15.554 15.554 0 0 0 9.104-2.72 64.084 64.084 0 0 0-12.285 55.527 31.108 31.108 0 0 0-20.145-7.777 30.41 30.41 0 0 0-24.342 11.898 17.654 17.654 0 0 1-14.155 7.076 17.422 17.422 0 0 1-10.342-3.342 17.809 17.809 0 0 0 12.363-16.955 16.643 16.643 0 0 0-3.964-11.2L94.362 109.136a165.174 165.174 0 0 1-32.124-51.249c-30.035 17.984-32.23 60.689-4.197 81.657l108.881 95.113.623.619a88.146 88.146 0 0 0-3.343 7.314l-69.216-40.594A203.918 203.918 0 0 1 37.9 155.33c-14.507 23.658-6.716 54.62 17.262 68.593l102.191 46.665a97.913 97.913 0 0 0-.543 10.42v.465c-4.354-.546-40.594-5.289-46.662-6.456a400.885 400.885 0 0 1-82.433-23.33c-3.094 29.072 19.68 54.417 48.916 54.439h83.761c.857 3.422 2.022 6.847 3.19 10.113-1.79.389-70.619 16.487-81.972 18.588-11.356 2.099-40.595 7.776-51.796 6.221 5.432 21.96 25.13 37.393 47.753 37.409a48.687 48.687 0 0 0 17.188-3.188l81.505-34.762c1.711 2.332 2.956 4.04 4.823 6.14 0 0-74.58 65.098-84.848 72.874a198.939 198.939 0 0 1-43.164 26.83c19.795 23.362 55.889 23.176 75.442-.388l72.638-81.427a84.04 84.04 0 0 0 7.775 4.742l-31.887 68.675c-11.201 23.332-26.363 58.486-51.483 83.683 27.784 16.42 63.587 2.114 72.403-28.932l33.52-114.242a99.227 99.227 0 0 0 13.146 2.567c-.467 5.054-3.113 34.997-8.79 68.749 1.501.106 3.008.106 4.509 0 17.18 0 31.109-13.928 31.109-31.108l-1.477-37.871a101.098 101.098 0 0 0 41.294-13.302l17.732 49.542a111.755 111.755 0 0 0-50.16 36.013c-14.934 19.909-21.777 35.928-51.565 46.66a31.11 31.11 0 0 0 21.467 8.631 28.15 28.15 0 0 0 3.576 0 63.844 63.844 0 0 0 13.096 19.296 12.52 12.52 0 0 0-3.382 2.564c-2.099 2.645-38.888 46.664-45.653 54.44a41.993 41.993 0 0 1-5.133-4.668 171.076 171.076 0 0 0-29.16-26.909h-.547a22.632 22.632 0 0 0-13.842-5.754c-14.653-.653-25.21 13.873-20.067 27.608l.389 1.09h1.168l2.719-.467h1.168v-1.946a6.689 6.689 0 0 1 2.178-4.82 6.455 6.455 0 0 1 7.777-.857 13.843 13.843 0 0 0 3.656 6.299 12.754 12.754 0 0 0 12.598 3.191l7.778 7.389c-13.221-.778-40.053-.547-41.687-.547h-1.945a25.12 25.12 0 0 0-14.463 1.559 21.31 21.31 0 0 0-10.498 11.586 20.376 20.376 0 0 0 5.677 22.166l.852.777 4.047-3.033-.467-.932a6.766 6.766 0 0 1 0-5.367 6.533 6.533 0 0 1 7-4.199 13.065 13.065 0 0 0 6.145 3.654 13.22 13.22 0 0 0 10.109-1.324 13.066 13.066 0 0 0 5.832-6.764 94.412 94.412 0 0 1 18.744 3.112l-23.332 9.875c-1.944.699-2.722.857-3.733 1.246a22.164 22.164 0 0 0-12.832 8.633c-8.546 11.905-2.167 28.671 12.131 31.885h1.088l.47-1.088 1.165-2.49.469-1.088-1.012-.623a6.688 6.688 0 0 1-2.879-4.51 6.456 6.456 0 0 1 2.49-6.142c1.699.579 3.501.79 5.288.62a13.608 13.608 0 0 0 11.742-13.063 130.555 130.555 0 0 1 38.266-10.813c15.554-1.322 23.33-1.242 27.84-1.242h1.245a4.744 4.744 0 0 1 3.346.932c.475.59.698 1.345.62 2.1 0 2.1-.543 6.923-.698 8.478a13.221 13.221 0 0 0-2.878 14.543 7.233 7.233 0 0 1-5.289 6.688 7.776 7.776 0 0 1-5.832-.858l-1.246-1.084-.855 1.01-2.098 2.256-.858.93.778 1.013c9.85 12.954 29.73 11.646 37.797-2.488a25.353 25.353 0 0 0 2.721-16.955v-5.131c0-21.23-9.799-29.554-18.664-32.82l40.676-51.097a11.2 11.2 0 0 0 1.334-3.23 63.85 63.85 0 0 0 23.79 6.88v-1.478c.019-26.654 16.475-50.533 41.375-60.04 3.267 29.32 1.868 58.255-33.207 89.673a54.441 54.441 0 0 0-20.531 51.562 66.182 66.182 0 0 1 41.996-21.775c-7.779 8.788-22.012 20.064-35.932 36.318-22.997 26.735-14.546 67.987 17.11 83.526a72.64 72.64 0 0 1 4.51-33.52c5.367-14.154 38.107-35.076 41.841-71.94a80.107 80.107 0 0 1 3.967 22.09c0 29.708-11.741 47.593-30.641 74.424a30.019 30.019 0 0 0 27.531-1.32c4.706 22.89 17.373 43.711 34.607 59.495V192.29c-7.021-10.755-17.99-19.133-29.863-24.03l.006-.003a20.064 20.064 0 0 0 9.176-16.8 20.7 20.7 0 0 0 0-2.487h-2.644c-37.788 0-42.221-50.324-93.17-51.173v-9.332a23.875 23.875 0 0 0 15.478-22.319c-.002-13.142-10.656-23.794-23.798-23.795a24.111 24.111 0 0 0-14.387 4.82 5.6 5.6 0 0 1-3.266.545h-.547a8.71 8.71 0 0 1-3.886-.545 23.332 23.332 0 0 0-14.311-4.82zm-.104 14.078v.002a9.254 9.254 0 0 1 9.065 9.256v9.176l-.076.077h-9.182a9.254 9.254 0 0 1-1.313-18.413 9.255 9.255 0 0 1 1.506-.097zm35.47.028a9.254 9.254 0 1 1 .658 18.485h-9.254v-9.255a9.255 9.255 0 0 1 8.596-9.23zm-52.493 50.638c.112.074 19.327 12.889 27.005 19.014a24.808 24.808 0 0 1 9.175 19.441 25.353 25.353 0 0 1-13.363 22.156l-.027-.138a19.599 19.599 0 0 1-15.088 0 31.107 31.107 0 0 0 16.332-8.868 12.6 12.6 0 0 0 3.81-8.943c.087-6.485-5.1-11.812-11.586-11.898a11.122 11.122 0 0 0-7.777 2.877 21.232 21.232 0 0 0-17.266-13.377h-17.812c-4.067-.295-7.449 3.087-7.154 7.154v2.412h-1.322a135.46 135.46 0 0 1-10.19-19.832 8.71 8.71 0 0 1 .545-7.776 4.744 4.744 0 0 1 3.811-2.101h40.83zm17.13.595h38.883v6.84h-9.72a9.916 9.916 0 0 1-19.831 0h-9.332zm-70 34.288-.855 3.11a18.822 18.822 0 0 0 3.19 16.644 29.164 29.164 0 0 0 21.465 9.176 47.048 47.048 0 0 0 24.11-7.775l3.034-1.713c10.81-5.91 15.553-4.352 17.497-3.574l1.168.386.623-1.011 1.865-2.955.7-1.167-.466-1.166a27.765 27.765 0 0 0-16.492-5.132 32.043 32.043 0 0 0-12.83 3.189 43.63 43.63 0 0 1-17.81 4.121 32.74 32.74 0 0 1-23.33-9.72z"/>
<path d="M256.902 27.804a6.185 6.185 0 0 0-6.184 6.183 6.185 6.185 0 0 0 6.184 6.184 6.185 6.185 0 0 0 6.186-6.184 6.185 6.185 0 0 0-6.186-6.183zm-18.04 17.562a20.726 20.726 0 0 0 0 41.45h36.4a20.726 20.726 0 0 0 0-41.45 20.998 20.998 0 0 0-12.522 4.2 7.777 7.777 0 0 1-5.133 1.166h-.545a10.654 10.654 0 0 1-5.754-1.244 20.376 20.376 0 0 0-12.445-4.121zm.096 7.938a12.365 12.365 0 0 1 12.366 12.366v12.367h-12.366a12.365 12.365 0 0 1-12.363-12.367 12.365 12.365 0 0 1 12.363-12.366zm36.323 0a12.365 12.365 0 0 1 0 24.653h-12.365v-12.29a12.365 12.365 0 0 1 12.365-12.363zm-41.634 35.458v9.022h46.82v-9.022h-46.818zm-11.972 18.284-.003.154h-40.83a4.744 4.744 0 0 0-3.811 2.102 8.71 8.71 0 0 0-.545 7.775 135.484 135.484 0 0 0 10.19 19.833h1.32v-2.412a6.689 6.689 0 0 1 7.156-7.157h17.813a21.232 21.232 0 0 1 17.264 13.377 11.121 11.121 0 0 1 7.778-2.877 11.743 11.743 0 0 1 11.586 11.9 12.6 12.6 0 0 1-3.81 8.946 31.109 31.109 0 0 1-16.563 8.864 20.064 20.064 0 0 0 15.555 0 25.042 25.042 0 0 0 3.965-41.453c-7.699-6.144-27.063-19.053-27.063-19.053zm-50.853 41.83a14.932 14.932 0 0 0 3.033 11.202 26.287 26.287 0 0 0 19.054 7.775 43.785 43.785 0 0 0 22.556-7.775l3.11-1.791h.003a23.332 23.332 0 0 1 19.445-4.045v-.621a25.742 25.742 0 0 0-13.222-3.422 29.242 29.242 0 0 0-11.665 2.955 46.663 46.663 0 0 1-18.976 4.356 35.464 35.464 0 0 1-23.33-8.633h-.005zm100.553 379.968a9.489 9.489 0 0 0-6.69 2.757c-2.256 2.878-44.798 53.352-46.665 55.53l-.932 1.088-1.168-.78a38.885 38.885 0 0 1-6.688-5.91 172.731 172.731 0 0 0-28.385-26.364 10.421 10.421 0 0 0-12.524 2.098 10.188 10.188 0 0 0 .469 14.235 10.032 10.032 0 0 0 10.42 2.176h.857l.622.545 12.365 11.043 4.356 3.422-5.522-.7c-9.72-1.245-45.575-.933-45.964-.933l-.076.234a10.188 10.188 0 0 0-9.256 15.553 10.188 10.188 0 0 0 18.588-2.41v-1.244h1.244a79.949 79.949 0 0 1 24.653 4.744l3.266 1.4-3.266 1.399-27.918 11.51a10.344 10.344 0 0 0-9.178 11.434 10.188 10.188 0 0 0 10.967 9.332 10.5 10.5 0 0 0 9.332-11.121v-1.012l.934-.389 1.166-.467a132.986 132.986 0 0 1 38.885-11.043c15.554-1.322 24.03-1.244 28.075-1.244h1.244a7.777 7.777 0 0 1 5.6 1.79 5.91 5.91 0 0 1 1.554 4.355c0 2.722-.777 9.099-.777 9.332v.621h-.467a10.188 10.188 0 0 0-.855 14.233 10.81 10.81 0 0 0 13.377 1.633 13.221 13.221 0 0 0 4.434-13.531v-2.413c0-16.565-6.61-28.62-18.821-32.042l-2.256-.62 1.479-1.868 42.075-52.808a8.244 8.244 0 0 0-1.867-10.809 9.489 9.489 0 0 0-6.688-2.758zm-103.366 20.95a17.654 17.654 0 0 0-17.577 23.02h.467a9.489 9.489 0 0 1 3.033-5.754 9.333 9.333 0 0 1 8.244-2.177h.7a12.677 12.677 0 0 1 3.578-9.257 13.609 13.609 0 0 1 7.853-4.353l-3.886-1.479zm-29.55 36.243a19.443 19.443 0 0 0-4.667.621 13.532 13.532 0 0 0-2.8 1.244 17.654 17.654 0 0 0-4.977 28.387 9.566 9.566 0 0 1 0-6.457 9.255 9.255 0 0 1 6.299-6.065h1.71a13.143 13.143 0 0 1-1.244-9.955 15.01 15.01 0 0 1 5.678-7.775zm4.431 35.93a10.265 10.265 0 0 0-2.877 2.332 24.576 24.576 0 0 0-1.479 2.022 17.654 17.654 0 0 0 9.335 27.221v-.466a9.41 9.41 0 0 1-3.192-5.602h.003a9.177 9.177 0 0 1 2.72-7.776l-1.554-1.244a12.988 12.988 0 0 1-2.955-16.486zm94.732 24.427a10.265 10.265 0 0 1-6.768 5.988 10.577 10.577 0 0 1-7.154-.623v.389a19.521 19.521 0 0 0 19.91 6.066 19.598 19.598 0 0 0 11.586-9.176l.625-1.168-.78.545a13.687 13.687 0 0 1-17.42-2.021z" fill="#f00000"/>
</svg>