<svg xmlns:dc="http://purl.org/dc/elements/1.1/" xmlns:cc="http://creativecommons.org/ns#" xmlns:rdf="http://www.w3.org/1999/02/22-rdf-syntax-ns#" xmlns:svg="http://www.w3.org/2000/svg" xmlns="http://www.w3.org/2000/svg" xmlns:sodipodi="http://sodipodi.sourceforge.net/DTD/sodipodi-0.dtd" xmlns:inkscape="http://www.inkscape.org/namespaces/inkscape" width="507.32" height="507.32" version="1.1" id="svg12" sodipodi:docname="Canton valais-drapeau.svg" inkscape:version="0.92.3 (2405546, 2018-03-11)">
  <metadata id="metadata18">
    <rdf:RDF>
      <cc:Work rdf:about="">
        <dc:format>image/svg+xml</dc:format>
        <dc:type rdf:resource="http://purl.org/dc/dcmitype/StillImage"/>
        <dc:title/>
      </cc:Work>
    </rdf:RDF>
  </metadata>
  <defs id="defs16"/>
  <sodipodi:namedview pagecolor="#ffffff" bordercolor="#666666" borderopacity="1" objecttolerance="10" gridtolerance="10" guidetolerance="10" inkscape:pageopacity="0" inkscape:pageshadow="2" inkscape:window-width="1920" inkscape:window-height="1017" id="namedview14" showgrid="false" inkscape:zoom="1.0196892" inkscape:cx="250.38921" inkscape:cy="102.77784" inkscape:window-x="-8" inkscape:window-y="-8" inkscape:window-maximized="1" inkscape:current-layer="svg12"/>
  <path d="M0 0h507.32v507.32H0z" fill="#f00000" id="path2"/>
  <path id="path2161" d="M 253.88037,507.32 V -3.5878031e-8 H 9.3948939e-8 L 1.0400068e-7,507.32 Z" style="fill:#ffffff;stroke:none;stroke-width:0.99999994" inkscape:connector-curvature="0" sodipodi:nodetypes="ccccc"/>
  <style id="style834" type="text/css">
	.st0{fill:#E32F28;}
</style>
  <g id="g1043" transform="matrix(1.078106,0,0,1.0744663,222.14266,222.0707)" style="stroke-width:0.92912227">
    <path id="path939" d="m 159.17846,-83.069995 -31.281,20.312 10.703,-34.754 -28.344,-18.991995 h 35.555 l 13.367,-36.367 13.375,36.367 h 35.555 l -28.071,19.257995 10.711,34.488 z" style="fill:#ffffff;fill-opacity:1;stroke:none;stroke-width:3.30024242" inkscape:connector-curvature="0"/>
    <path id="path953" d="m -97.899541,-83.069995 -31.281999,20.312 10.688,-34.754 -28.328,-18.991995 h 35.555 l 13.366999,-36.367 13.367,36.367 h 35.578 l -28.09,19.257995 10.703,34.488 z" style="fill:#f00000;fill-opacity:1;stroke:none;stroke-width:0.92912227" inkscape:connector-curvature="0"/>
    <path id="path957" d="m -97.899541,5.3670055 -31.281999,20.3129995 10.688,-34.7659995 -28.328,-18.9840005 h 35.555 l 13.366999,-36.36 13.367,36.36 h 35.578 l -28.09,19.2610005 10.703,34.4889995 z" style="fill:#f00000;fill-opacity:1;stroke:none;stroke-width:0.92912227" inkscape:connector-curvature="0"/>
    <path id="path961" d="m -97.899541,93.793005 -31.281999,20.312005 10.688,-34.757005 -28.328,-18.985 h 35.555 l 13.366999,-36.371 13.367,36.371 h 35.578 l -28.09,19.25 10.703,34.492005 z" style="fill:#f00000;fill-opacity:1;stroke:none;stroke-width:0.92912227" inkscape:connector-curvature="0"/>
    <path id="path965" d="m -97.899541,182.20701 -31.281999,20.328 10.688,-34.758 -28.328,-18.984 h 35.555 l 13.366999,-36.36 13.367,36.36 h 35.578 l -28.09,19.258 10.703,34.484 z" style="fill:#f00000;fill-opacity:1;stroke:none;stroke-width:0.92912227" inkscape:connector-curvature="0"/>
    <path id="path939-8" d="m 159.17845,5.3640055 -31.281,20.3120005 10.703,-34.7540004 -28.344,-18.9919996 h 35.555 l 13.367,-36.367 13.375,36.367 h 35.555 l -28.071,19.2579996 10.711,34.4880004 z" style="fill:#ffffff;fill-opacity:1;stroke:none;stroke-width:3.30024242" inkscape:connector-curvature="0"/>
    <path id="path939-6" d="m 159.17845,93.797005 -31.28099,20.312005 10.70299,-34.754005 -28.344,-18.992 h 35.555 l 13.367,-36.367 13.375,36.367 h 35.555 l -28.071,19.258 10.711,34.488005 z" style="fill:#ffffff;fill-opacity:1;stroke:none;stroke-width:3.30024242" inkscape:connector-curvature="0"/>
    <path id="path939-7" d="m 159.17845,182.22701 -31.281,20.312 10.703,-34.754 -28.344,-18.992 h 35.555 l 13.367,-36.367 13.375,36.367 h 35.555 l -28.071,19.258 10.711,34.488 z" style="fill:#ffffff;fill-opacity:1;stroke:none;stroke-width:3.30024242" inkscape:connector-curvature="0"/>
    <path id="path939-7-5-3" d="m 29.439013,53.28547 v -69.801003 l 13.375,36.36699 h 35.555 l -28.071,19.258013 10.711,34.488 z" style="display:inline;fill:#ffffff;fill-opacity:1;stroke:none;stroke-width:3.30024242" inkscape:connector-curvature="0" sodipodi:nodetypes="ccccccc"/>
    <path id="path939-7-5-7" d="m 29.439013,-35.15953 v -69.801 l 13.375,36.366987 h 35.555 l -28.071,19.258017 10.711,34.487996 z" style="fill:#ffffff;fill-opacity:1;stroke:none;stroke-width:3.30024242" inkscape:connector-curvature="0" sodipodi:nodetypes="ccccccc"/>
    <path id="path939-7-5-3-2" d="m 29.439013,-123.58552 v -69.801 l 13.375,36.36699 h 35.555 l -28.071,19.25801 10.711,34.488 z" style="display:inline;fill:#ffffff;fill-opacity:1;stroke:none;stroke-width:3.30024242" inkscape:connector-curvature="0" sodipodi:nodetypes="ccccccc"/>
    <path id="path939-7-5-3-4" d="m 29.439013,230.15645 v -69.801 l 13.375,36.36699 h 35.555 l -28.071,19.25802 10.711,34.48799 z" style="display:inline;fill:#ffffff;fill-opacity:1;stroke:none;stroke-width:3.30024242" inkscape:connector-curvature="0" sodipodi:nodetypes="ccccccc"/>
    <path id="path939-7-5-7-3" d="m 29.439013,141.71145 v -69.801 l 13.375,36.36699 h 35.555 l -28.071,19.25802 10.711,34.48799 z" style="fill:#ffffff;fill-opacity:1;stroke:none;stroke-width:3.30024242" inkscape:connector-curvature="0" sodipodi:nodetypes="ccccccc"/>
    <path id="path939-7-5-3-3" d="m 29.439013,53.28547 v -69.80101 l -13.375,36.36699 h -35.555 l 28.0709997,19.25802 -10.711,34.488 z" style="display:inline;fill:#f00000;fill-opacity:1;stroke:none;stroke-width:3.30024242" inkscape:connector-curvature="0" sodipodi:nodetypes="ccccccc"/>
    <path id="path939-7-5-7-9" d="m 29.439013,-35.159531 v -69.801009 l -13.375,36.366996 h -35.555 l 28.0709997,19.258017 -10.711,34.487997 z" style="fill:#f00000;fill-opacity:1;stroke:none;stroke-width:3.30024242" inkscape:connector-curvature="0" sodipodi:nodetypes="ccccccc"/>
    <path id="path939-7-5-3-2-6" d="m 29.439013,-123.58552 v -69.801 l -13.375,36.36699 h -35.555 l 28.0709997,19.25801 -10.711,34.488 z" style="display:inline;fill:#f00000;fill-opacity:1;stroke:none;stroke-width:3.30024242" inkscape:connector-curvature="0" sodipodi:nodetypes="ccccccc"/>
    <path id="path939-7-5-3-4-2" d="m 29.439013,230.15645 v -69.801 l -13.375,36.36698 h -35.555 l 28.0709997,19.25802 -10.711,34.488 z" style="display:inline;fill:#f00000;fill-opacity:1;stroke:none;stroke-width:3.30024242" inkscape:connector-curvature="0" sodipodi:nodetypes="ccccccc"/>
    <path id="path939-7-5-7-3-8" d="M 29.439013,141.71145 V 71.91044 l -13.375,36.367 h -35.555 l 28.0709997,19.25801 -10.711,34.488 z" style="fill:#f00000;fill-opacity:1;stroke:none;stroke-width:3.30024242" inkscape:connector-curvature="0" sodipodi:nodetypes="ccccccc"/>
  </g>
</svg>